<?xml version="1.0" encoding="UTF-8" standalone="no" ?>
<!DOCTYPE svg PUBLIC "-//W3C//DTD SVG 1.1//EN" "http://www.w3.org/Graphics/SVG/1.1/DTD/svg11.dtd">
<svg xmlns="http://www.w3.org/2000/svg" xmlns:xlink="http://www.w3.org/1999/xlink" version="1.1" width="185.48828125" height="181.432" xml:space="preserve">
<desc>Created with Fabric.js 1.6.0-rc.1</desc>
<defs></defs>
<g style="stroke: none; stroke-width: 1; stroke-dasharray: none; stroke-linecap: butt; stroke-linejoin: miter; stroke-miterlimit: 10; fill: none; fill-rule: nonzero; opacity: 1;" transform="translate(32.8599999999999 10) scale(0.76 0.76)" >
  <rect x="17.07" y="30.3" rx="0" ry="0" width="121.99" height="103.12" style="stroke: none; stroke-width: 1; stroke-dasharray: none; stroke-linecap: butt; stroke-linejoin: miter; stroke-miterlimit: 10; fill: #F59DCC; fill-rule: evenodd; opacity: 1;" transform=" matrix(1 0 0 1 0 0) "/>
  <rect x="17.07" y="96.92" rx="0" ry="0" width="121.99" height="36.49" style="stroke: none; stroke-width: 1; stroke-dasharray: none; stroke-linecap: butt; stroke-linejoin: miter; stroke-miterlimit: 10; fill: #DB86B3; fill-rule: evenodd; opacity: 1;" transform=" matrix(1 0 0 1 0 0) "/>
  <polygon points="0,51.77 156.13,51.77 139.06,22.71 17.07,22.71 " style="stroke: none; stroke-width: 1; stroke-dasharray: none; stroke-linecap: butt; stroke-linejoin: miter; stroke-miterlimit: 10; fill: #47C796; fill-rule: evenodd; opacity: 1;" transform="  matrix(1 0 0 1 0 0) "/>
  <path d="M 14.194 51.768 c 0 4.027 3.177 7.293 7.097 7.293 s 7.097 -3.266 7.097 -7.293 H 14.194 z" style="stroke: none; stroke-width: 1; stroke-dasharray: none; stroke-linecap: butt; stroke-linejoin: miter; stroke-miterlimit: 10; fill: #EDC256; fill-rule: evenodd; opacity: 1;" transform=" matrix(1 0 0 1 0 0) " stroke-linecap="round" />
  <path d="M 42.582 51.768 c 0 4.027 3.177 7.293 7.097 7.293 s 7.097 -3.266 7.097 -7.293 H 42.582 z" style="stroke: none; stroke-width: 1; stroke-dasharray: none; stroke-linecap: butt; stroke-linejoin: miter; stroke-miterlimit: 10; fill: #EDC256; fill-rule: evenodd; opacity: 1;" transform=" matrix(1 0 0 1 0 0) " stroke-linecap="round" />
  <path d="M 70.97 51.768 c 0 4.027 3.177 7.293 7.097 7.293 s 7.097 -3.266 7.097 -7.293 H 70.97 z" style="stroke: none; stroke-width: 1; stroke-dasharray: none; stroke-linecap: butt; stroke-linejoin: miter; stroke-miterlimit: 10; fill: #EDC256; fill-rule: evenodd; opacity: 1;" transform=" matrix(1 0 0 1 0 0) " stroke-linecap="round" />
  <path d="M 99.357 51.768 c 0 4.027 3.177 7.293 7.097 7.293 c 3.92 0 7.098 -3.266 7.098 -7.293 H 99.357 z" style="stroke: none; stroke-width: 1; stroke-dasharray: none; stroke-linecap: butt; stroke-linejoin: miter; stroke-miterlimit: 10; fill: #EDC256; fill-rule: evenodd; opacity: 1;" transform=" matrix(1 0 0 1 0 0) " stroke-linecap="round" />
  <path d="M 127.745 51.768 c 0 4.027 3.177 7.293 7.097 7.293 c 3.92 0 7.097 -3.266 7.097 -7.293 H 127.745 z" style="stroke: none; stroke-width: 1; stroke-dasharray: none; stroke-linecap: butt; stroke-linejoin: miter; stroke-miterlimit: 10; fill: #EDC256; fill-rule: evenodd; opacity: 1;" transform=" matrix(1 0 0 1 0 0) " stroke-linecap="round" />
  <path d="M 14.194 51.768 c 0 4.027 -3.178 7.293 -7.097 7.293 C 3.178 59.061 0 55.795 0 51.768 H 14.194 z" style="stroke: none; stroke-width: 1; stroke-dasharray: none; stroke-linecap: butt; stroke-linejoin: miter; stroke-miterlimit: 10; fill: #19A871; fill-rule: evenodd; opacity: 1;" transform=" matrix(1 0 0 1 0 0) " stroke-linecap="round" />
  <path d="M 42.582 51.768 c 0 4.027 -3.178 7.293 -7.097 7.293 c -3.92 0 -7.098 -3.266 -7.098 -7.293 H 42.582 z" style="stroke: none; stroke-width: 1; stroke-dasharray: none; stroke-linecap: butt; stroke-linejoin: miter; stroke-miterlimit: 10; fill: #19A871; fill-rule: evenodd; opacity: 1;" transform=" matrix(1 0 0 1 0 0) " stroke-linecap="round" />
  <path d="M 70.97 51.768 c 0 4.027 -3.178 7.293 -7.097 7.293 c -3.92 0 -7.098 -3.266 -7.098 -7.293 H 70.97 z" style="stroke: none; stroke-width: 1; stroke-dasharray: none; stroke-linecap: butt; stroke-linejoin: miter; stroke-miterlimit: 10; fill: #19A871; fill-rule: evenodd; opacity: 1;" transform=" matrix(1 0 0 1 0 0) " stroke-linecap="round" />
  <path d="M 99.357 51.768 c 0 4.027 -3.178 7.293 -7.097 7.293 c -3.92 0 -7.098 -3.266 -7.098 -7.293 H 99.357 z" style="stroke: none; stroke-width: 1; stroke-dasharray: none; stroke-linecap: butt; stroke-linejoin: miter; stroke-miterlimit: 10; fill: #19A871; fill-rule: evenodd; opacity: 1;" transform=" matrix(1 0 0 1 0 0) " stroke-linecap="round" />
  <path d="M 127.745 51.768 c 0 4.027 -3.178 7.293 -7.097 7.293 c -3.92 0 -7.097 -3.266 -7.097 -7.293 H 127.745 z" style="stroke: none; stroke-width: 1; stroke-dasharray: none; stroke-linecap: butt; stroke-linejoin: miter; stroke-miterlimit: 10; fill: #19A871; fill-rule: evenodd; opacity: 1;" transform=" matrix(1 0 0 1 0 0) " stroke-linecap="round" />
  <path d="M 156.133 51.768 c 0 4.027 -3.178 7.293 -7.097 7.293 c -3.92 0 -7.098 -3.266 -7.098 -7.293 H 156.133 z" style="stroke: none; stroke-width: 1; stroke-dasharray: none; stroke-linecap: butt; stroke-linejoin: miter; stroke-miterlimit: 10; fill: #19A871; fill-rule: evenodd; opacity: 1;" transform=" matrix(1 0 0 1 0 0) " stroke-linecap="round" />
  <polygon points="14.19,51.77 141.94,51.77 127.97,22.71 28.16,22.71 " style="stroke: none; stroke-width: 1; stroke-dasharray: none; stroke-linecap: butt; stroke-linejoin: miter; stroke-miterlimit: 10; fill: #FFD873; fill-rule: evenodd; opacity: 1;" transform="  matrix(1 0 0 1 0 0) "/>
  <polygon points="28.39,51.77 127.75,51.77 116.88,22.71 39.25,22.71 " style="stroke: none; stroke-width: 1; stroke-dasharray: none; stroke-linecap: butt; stroke-linejoin: miter; stroke-miterlimit: 10; fill: #47C796; fill-rule: evenodd; opacity: 1;" transform="  matrix(1 0 0 1 0 0) "/>
  <polygon points="42.58,51.77 113.55,51.77 105.79,22.71 50.34,22.71 " style="stroke: none; stroke-width: 1; stroke-dasharray: none; stroke-linecap: butt; stroke-linejoin: miter; stroke-miterlimit: 10; fill: #FFD873; fill-rule: evenodd; opacity: 1;" transform="  matrix(1 0 0 1 0 0) "/>
  <polygon points="56.78,51.77 99.36,51.77 94.7,22.71 61.43,22.71 " style="stroke: none; stroke-width: 1; stroke-dasharray: none; stroke-linecap: butt; stroke-linejoin: miter; stroke-miterlimit: 10; fill: #47C796; fill-rule: evenodd; opacity: 1;" transform="  matrix(1 0 0 1 0 0) "/>
  <polygon points="70.97,51.77 85.16,51.77 83.61,22.71 72.52,22.71 " style="stroke: none; stroke-width: 1; stroke-dasharray: none; stroke-linecap: butt; stroke-linejoin: miter; stroke-miterlimit: 10; fill: #FFD873; fill-rule: evenodd; opacity: 1;" transform="  matrix(1 0 0 1 0 0) "/>
  <rect x="76.17" y="60.43" rx="0" ry="0" width="43.88" height="72.99" style="stroke: none; stroke-width: 1; stroke-dasharray: none; stroke-linecap: butt; stroke-linejoin: miter; stroke-miterlimit: 10; fill: #DB86B3; fill-rule: evenodd; opacity: 1;" transform=" matrix(1 0 0 1 0 0) "/>
  <rect x="79.96" y="63.69" rx="0" ry="0" width="36.31" height="69.73" style="stroke: none; stroke-width: 1; stroke-dasharray: none; stroke-linecap: butt; stroke-linejoin: miter; stroke-miterlimit: 10; fill: #9FECFF; fill-rule: evenodd; opacity: 1;" transform=" matrix(1 0 0 1 0 0) "/>
  <rect x="36.08" y="60.43" rx="0" ry="0" width="43.88" height="72.99" style="stroke: none; stroke-width: 1; stroke-dasharray: none; stroke-linecap: butt; stroke-linejoin: miter; stroke-miterlimit: 10; fill: #DB86B3; fill-rule: evenodd; opacity: 1;" transform=" matrix(1 0 0 1 0 0) "/>
  <rect x="39.87" y="63.69" rx="0" ry="0" width="36.31" height="69.73" style="stroke: none; stroke-width: 1; stroke-dasharray: none; stroke-linecap: butt; stroke-linejoin: miter; stroke-miterlimit: 10; fill: #9FECFF; fill-rule: evenodd; opacity: 1;" transform=" matrix(1 0 0 1 0 0) "/>
  <polygon points="39.87,109.22 76.17,72.91 76.17,69.17 39.87,105.47 " style="stroke: none; stroke-width: 1; stroke-dasharray: none; stroke-linecap: butt; stroke-linejoin: miter; stroke-miterlimit: 10; fill: #DEF8FF; fill-rule: evenodd; opacity: 1;" transform="  matrix(1 0 0 1 0 0) "/>
  <polygon points="39.87,120.45 76.17,84.15 76.17,76.66 39.87,112.96 " style="stroke: none; stroke-width: 1; stroke-dasharray: none; stroke-linecap: butt; stroke-linejoin: miter; stroke-miterlimit: 10; fill: #DEF8FF; fill-rule: evenodd; opacity: 1;" transform="  matrix(1 0 0 1 0 0) "/>
  <polygon points="39.87,127.94 76.17,91.64 76.17,87.89 39.87,124.2 " style="stroke: none; stroke-width: 1; stroke-dasharray: none; stroke-linecap: butt; stroke-linejoin: miter; stroke-miterlimit: 10; fill: #DEF8FF; fill-rule: evenodd; opacity: 1;" transform="  matrix(1 0 0 1 0 0) "/>
  <polygon points="79.96,109.22 116.27,72.91 116.27,69.17 79.96,105.47 " style="stroke: none; stroke-width: 1; stroke-dasharray: none; stroke-linecap: butt; stroke-linejoin: miter; stroke-miterlimit: 10; fill: #DEF8FF; fill-rule: evenodd; opacity: 1;" transform="  matrix(1 0 0 1 0 0) "/>
  <polygon points="79.96,120.45 116.27,84.15 116.27,76.66 79.96,112.96 " style="stroke: none; stroke-width: 1; stroke-dasharray: none; stroke-linecap: butt; stroke-linejoin: miter; stroke-miterlimit: 10; fill: #DEF8FF; fill-rule: evenodd; opacity: 1;" transform="  matrix(1 0 0 1 0 0) "/>
  <polygon points="79.96,127.94 116.27,91.64 116.27,87.89 79.96,124.2 " style="stroke: none; stroke-width: 1; stroke-dasharray: none; stroke-linecap: butt; stroke-linejoin: miter; stroke-miterlimit: 10; fill: #DEF8FF; fill-rule: evenodd; opacity: 1;" transform="  matrix(1 0 0 1 0 0) "/>
</g>
  <g transform="translate(93.24 145.72)">
   <text font-family="ADAMCG PRO" font-size="40" font-weight="normal" style="stroke: none; stroke-width: 1; stroke-dasharray: none; stroke-linecap: butt; stroke-linejoin: miter; stroke-miterlimit: 10; fill: #852285; fill-rule: nonzero; opacity: 1;" ><tspan x="-82.74" y="8.98" style="stroke: none; stroke-width: 0; stroke-dasharray: none; stroke-linecap: butt; stroke-linejoin: miter; stroke-miterlimit: 4; fill: #852285; fill-rule: ; opacity: 1;">a</tspan><tspan x="-54.95" y="8.98" style="stroke: none; stroke-width: 0; stroke-dasharray: none; stroke-linecap: butt; stroke-linejoin: miter; stroke-miterlimit: 4; fill: #852285; fill-rule: ; opacity: 1;">l</tspan><tspan x="-34.52" y="8.98" style="stroke: none; stroke-width: 0; stroke-dasharray: none; stroke-linecap: butt; stroke-linejoin: miter; stroke-miterlimit: 4; fill: #852285; fill-rule: ; opacity: 1;"> </tspan><tspan x="-22.53" y="8.98" style="stroke: none; stroke-width: 0; stroke-dasharray: none; stroke-linecap: butt; stroke-linejoin: miter; stroke-miterlimit: 4; fill: #852285; fill-rule: ; opacity: 1;">p</tspan><tspan x="-0.11" y="8.98" style="stroke: none; stroke-width: 0; stroke-dasharray: none; stroke-linecap: butt; stroke-linejoin: miter; stroke-miterlimit: 4; fill: #852285; fill-rule: ; opacity: 1;">a</tspan><tspan x="27.69" y="8.98" style="stroke: none; stroke-width: 0; stroke-dasharray: none; stroke-linecap: butt; stroke-linejoin: miter; stroke-miterlimit: 4; fill: #852285; fill-rule: ; opacity: 1;">s</tspan><tspan x="48.8" y="8.98" style="stroke: none; stroke-width: 0; stroke-dasharray: none; stroke-linecap: butt; stroke-linejoin: miter; stroke-miterlimit: 4; fill: #852285; fill-rule: ; opacity: 1;">o</tspan></text>
 </g>
</svg>